<svg width="107" height="26" viewBox="0 0 107 26" fill="none" xmlns="http://www.w3.org/2000/svg">
<mask id="mask0" style="mask-type:alpha" maskUnits="userSpaceOnUse" x="0" y="0" width="107" height="26">
<path d="M0 0H107V26H0V0Z" fill="#C4C4C4"/>
</mask>
<g mask="url(#mask0)">
<g clip-path="url(#clip0)">
<path fill-rule="evenodd" clip-rule="evenodd" d="M12 24.0225C18.6274 24.0225 24 18.6499 24 12.0225C24 5.39504 18.6274 0.0224609 12 0.0224609C5.37258 0.0224609 0 5.39504 0 12.0225C0 18.6499 5.37258 24.0225 12 24.0225ZM13.2605 17.1772C13.2605 15.3324 13.0267 14.7981 12.3255 13.2621L8.64412 5.22314H6.03125L10.7561 15.4993V19.6231H13.2605V17.1772ZM12.3506 12.1852L15.4142 5.22314H17.9686L14.8966 12.1852H12.3506Z" fill="white"/>
</g>
<path d="M37.0355 21.0503C38.9677 21.0503 40.2815 20.3548 41.0802 19.8138V17.3149C40.0497 18.062 38.9162 18.6287 37.2674 18.6287C34.4336 18.6287 33.094 16.3359 33.094 11.8533C33.094 7.24195 34.3821 5.05219 37.422 5.05219C38.8389 5.05219 40.1527 5.67047 41.0802 6.263V3.76409C40.2558 3.17157 38.9162 2.63057 37.2674 2.63057C32.5014 2.63057 29.9252 6.13419 29.9252 11.8533C29.9252 17.7271 32.6045 21.0503 37.0355 21.0503ZM47.8964 7.57686C44.5216 7.57686 42.1773 9.97271 42.1773 14.3265C42.1773 18.6545 44.5216 21.0503 47.8964 21.0503C51.2712 21.0503 53.6156 18.6545 53.6156 14.3007C53.6156 9.97271 51.2712 7.57686 47.8964 7.57686ZM47.8964 18.6287C46.1961 18.6287 45.346 17.3149 45.346 14.3265C45.346 11.3123 46.1961 9.99848 47.8964 9.99848C49.5967 9.99848 50.4468 11.3123 50.4468 14.3007C50.4468 17.3149 49.5967 18.6287 47.8964 18.6287ZM58.7398 11.4927C59.3065 10.7971 60.2082 10.2046 61.316 10.2046C62.398 10.2046 62.8874 10.6683 62.8874 11.6472V20.7927H65.9531V11.3381C65.9531 8.7619 64.9226 7.62838 62.4237 7.62838C60.5946 7.62838 59.5126 8.29819 58.8943 8.91648H58.7398L58.6625 7.83447H55.6741V20.7927H58.7398V11.4927ZM67.2478 7.83447V10.2561H68.8708V16.9027C68.8708 19.3243 70.2362 21.0503 73.07 21.0503C74.5642 21.0503 75.4144 20.7154 75.4144 20.7154V18.2165C75.4144 18.2165 74.8476 18.6287 73.8171 18.6287C72.529 18.6287 71.9365 17.8816 71.9365 16.9284V10.2561H75.1567V7.83447H71.9365V5.00066H68.8708V7.83447H67.2478ZM86.4988 19.9168V17.4179C85.5457 18.062 83.9484 18.6287 82.4542 18.6287C80.2129 18.6287 79.3628 17.5725 79.234 15.4085H86.6277V13.7855C86.6277 9.27714 84.644 7.57686 81.5783 7.57686C77.8428 7.57686 76.0653 10.4364 76.0653 14.3522C76.0653 18.8606 78.2808 21.0503 82.1966 21.0503C84.1545 21.0503 85.5972 20.5351 86.4988 19.9168ZM81.5268 9.99848C83.0467 9.99848 83.5105 11.2608 83.5105 12.8838V13.1414H79.234C79.3113 11.0805 80.0584 9.99848 81.5268 9.99848ZM92.6747 21.0503C95.7146 21.0503 97.6982 19.788 97.6982 16.7223C97.6982 14.4553 96.1268 13.2702 93.5248 12.9096C92.2367 12.7292 91.1547 12.5747 91.1547 11.3381C91.1547 10.3591 91.9276 9.92119 93.3702 9.92119C95.3539 9.92119 96.6162 10.6425 96.8223 10.7971V8.29819C96.8223 8.29819 95.6115 7.57686 93.0611 7.57686C89.9181 7.57686 88.1663 9.22562 88.1663 11.4669C88.1663 13.7597 89.4802 14.9448 92.0048 15.2797C93.7824 15.5115 94.7356 16.001 94.7356 17.1345C94.7356 18.1392 93.937 18.6287 92.1852 18.6287C89.9439 18.6287 88.5012 17.4694 88.2436 17.3406V19.8395C88.2436 19.8395 89.6863 21.0503 92.6747 21.0503ZM98.2175 7.83447V10.2561H99.8405V16.9027C99.8405 19.3243 101.206 21.0503 104.04 21.0503C105.534 21.0503 106.384 20.7154 106.384 20.7154V18.2165C106.384 18.2165 105.817 18.6287 104.787 18.6287C103.499 18.6287 102.906 17.8816 102.906 16.9284V10.2561H106.126V7.83447H102.906V5.00066H99.8405V7.83447H98.2175Z" fill="white"/>
</g>
<defs>
<clipPath id="clip0">
<rect width="24" height="24" fill="white" transform="translate(0 0.0224609)"/>
</clipPath>
</defs>
</svg>
